<svg width="394" height="100" viewBox="0 0 394 100" fill="none" xmlns="http://www.w3.org/2000/svg">
<circle cx="50" cy="50" r="50" fill="#FFBD37" fill-opacity="0.81"/>
<circle cx="197" cy="50" r="50" fill="#FFBD37" fill-opacity="0.81"/>
<circle cx="344" cy="50" r="50" fill="#D9D9D9"/>
<line x1="99.9985" y1="51.25" x2="147.006" y2="51.25" stroke="#ABABAB" stroke-width="2"/>
<line x1="247" y1="51" x2="294.008" y2="51" stroke="#ABABAB" stroke-width="2"/>
<path d="M78.25 36L45.875 63.1122L32 52.9451" stroke="white" stroke-width="4.59525" stroke-linecap="round" stroke-linejoin="round"/>
<path d="M225.25 36L192.875 63.1122L179 52.9451" stroke="white" stroke-width="4.59525" stroke-linecap="round" stroke-linejoin="round"/>
<path d="M335.28 43.442C335.457 41.1113 336.357 39.2873 337.978 37.97C339.599 36.6527 341.702 35.994 344.286 35.994C346.009 35.994 347.491 36.3107 348.732 36.944C349.999 37.552 350.949 38.388 351.582 39.452C352.241 40.516 352.57 41.7193 352.57 43.062C352.57 44.6327 352.114 45.988 351.202 47.128C350.315 48.268 349.15 49.0027 347.706 49.332V49.522C349.353 49.9273 350.657 50.7253 351.62 51.916C352.583 53.1067 353.064 54.6647 353.064 56.59C353.064 58.034 352.735 59.3387 352.076 60.504C351.417 61.644 350.429 62.5433 349.112 63.202C347.795 63.8607 346.211 64.19 344.362 64.19C341.677 64.19 339.473 63.4933 337.75 62.1C336.027 60.6813 335.065 58.68 334.862 56.096H338.206C338.383 57.616 339.004 58.8573 340.068 59.82C341.132 60.7827 342.551 61.264 344.324 61.264C346.097 61.264 347.44 60.808 348.352 59.896C349.289 58.9587 349.758 57.7553 349.758 56.286C349.758 54.386 349.125 53.018 347.858 52.182C346.591 51.346 344.679 50.928 342.12 50.928H341.246V48.04H342.158C344.489 48.0147 346.249 47.6347 347.44 46.9C348.631 46.14 349.226 44.9747 349.226 43.404C349.226 42.0613 348.783 40.9847 347.896 40.174C347.035 39.3633 345.793 38.958 344.172 38.958C342.601 38.958 341.335 39.3633 340.372 40.174C339.409 40.9847 338.839 42.074 338.662 43.442H335.28Z" fill="#8A8989" fill-opacity="0.87"/>
</svg>
